<?xml version="1.0" encoding="utf-8"?>
<svg xmlns="http://www.w3.org/2000/svg" viewBox="26.739 134.2725 428.491 180.6875" width="428.491px" height="180.688px">
  <path id="path22" style="fill: rgb(242, 80, 78); fill-opacity: 1; fill-rule: nonzero; stroke: none; stroke-width: 2px; stroke-linejoin: round; stroke-linecap: round;" d="M 148.302 213.731 C 148.302 216.353 146.577 218.612 144.206 219.034 C 142.635 219.313 140.586 219.532 138.021 219.532 C 135.457 219.532 133.409 219.313 131.837 219.034 C 129.467 218.612 127.742 216.353 127.742 213.731 L 127.742 205.556 L 148.302 205.556 L 148.302 213.731"/>
  <path id="path24" style="fill: none; stroke: rgb(23, 40, 47); stroke-miterlimit: 10; stroke-dasharray: none; stroke-opacity: 1; stroke-width: 2px; stroke-linejoin: round; stroke-linecap: round;" d="M 148.302 213.731 C 148.302 216.353 146.577 218.612 144.206 219.034 C 142.635 219.313 140.586 219.532 138.021 219.532 C 135.457 219.532 133.409 219.313 131.837 219.034 C 129.467 218.612 127.742 216.353 127.742 213.731 L 127.742 205.556 L 148.302 205.556 L 148.302 213.731 Z"/>
  <path id="path26" style="fill: rgb(242, 80, 78); fill-opacity: 1; fill-rule: nonzero; stroke: none; stroke-width: 2px; stroke-linejoin: round; stroke-linecap: round;" d="M 217.004 202.123 L 196.227 224.322 C 196.227 224.322 173.749 211.921 161.534 205.322 C 155.1 206.273 153.727 211.941 141.063 211.941 C 132.139 211.941 127.009 205.217 123.303 204.189 C 119.598 203.161 114.916 202.835 112.769 199.214 C 110.622 195.602 110.429 188.599 113.746 186.476 C 115.321 185.467 117.178 185.736 120.699 186.293 L 120.699 172.25 C 120.699 172.25 137.095 166.083 157.925 172.163 C 158.111 172.096 158.216 172.048 158.224 172.038 C 158.304 171.952 158.251 182.567 158.234 186.437 C 158.735 186.418 159.122 186.428 159.351 186.467 C 164.051 187.273 217.004 202.123 217.004 202.123"/>
  <path id="path28" style="fill: rgb(255, 255, 255); fill-opacity: 1; fill-rule: nonzero; stroke: none; stroke-width: 2px; stroke-linejoin: round; stroke-linecap: round;" d="M 158.224 172.037 C 158.234 172.037 158.242 172.113 158.242 172.248 C 141.539 169.616 129.367 174.188 129.367 174.188 L 129.367 188.242 C 125.847 187.685 123.99 187.415 122.415 188.424 C 119.097 190.547 119.291 197.55 121.438 201.161 C 123.585 204.782 128.267 205.109 131.973 206.128 C 134.374 206.8 137.376 209.864 141.617 211.93 C 141.433 211.939 141.248 211.939 141.063 211.939 C 132.139 211.939 127.009 205.215 123.303 204.187 C 119.598 203.159 114.916 202.833 112.769 199.211 C 110.622 195.599 110.429 188.596 113.746 186.474 C 115.321 185.466 117.178 185.734 120.699 186.292 L 120.699 172.248 C 120.699 172.248 137.095 166.081 157.925 172.162 C 158.111 172.094 158.216 172.047 158.224 172.037"/>
  <path id="path30" style="fill: rgb(255, 255, 255); fill-opacity: 1; fill-rule: nonzero; stroke: none; stroke-width: 2px; stroke-linejoin: round; stroke-linecap: round;" d="M 167.078 188.386 C 167.025 188.376 166.964 188.386 166.902 188.386 L 166.902 188.338 C 166.955 188.357 167.017 188.366 167.078 188.386"/>
  <path id="path32" style="fill: none; stroke: rgb(23, 40, 47); stroke-miterlimit: 10; stroke-dasharray: none; stroke-opacity: 1; stroke-width: 2px; stroke-linejoin: round; stroke-linecap: round;" d="M 161.539 205.326 C 155.1 206.263 153.74 211.941 141.061 211.941 C 132.135 211.941 127.011 205.214 123.304 204.186 C 119.597 203.157 114.915 202.838 112.769 199.218 C 110.622 195.597 110.427 188.602 113.744 186.473 C 117.06 184.342 121.648 187.576 140.473 187.907 C 146.521 188.014 151.277 187.215 151.277 187.215"/>
  <path id="path34" style="fill: none; stroke: rgb(23, 40, 47); stroke-miterlimit: 10; stroke-dasharray: none; stroke-opacity: 1; stroke-width: 2px; stroke-linejoin: round; stroke-linecap: round;" d="M 150.863 204.678 C 150.863 201.643 151.887 200.525 153.936 201.323 C 155.984 202.122 196.225 224.322 196.225 224.322 L 217.003 202.122 C 217.003 202.122 162.93 186.577 158.228 185.777"/>
  <path id="path36" style="fill: none; stroke: rgb(23, 40, 47); stroke-miterlimit: 10; stroke-dasharray: none; stroke-opacity: 1; stroke-width: 2px; stroke-linejoin: round; stroke-linecap: round;" d="M 120.7 184.98 C 120.7 184.98 120.7 173.314 120.7 172.249 C 120.7 172.249 128.462 174.491 139.485 174.491 C 151.924 174.491 158.131 172.156 158.228 172.042 C 158.325 171.929 158.228 185.777 158.228 185.777"/>
  <path id="path38" style="fill: none; stroke: rgb(23, 40, 47); stroke-miterlimit: 10; stroke-dasharray: none; stroke-opacity: 1; stroke-width: 2px; stroke-linejoin: round; stroke-linecap: round;" d="M 120.7 172.249 C 120.7 172.249 137.254 165.82 158.228 172.042 C 158.228 172.042 151.18 174.491 139.485 174.491 C 127.791 174.491 120.7 172.249 120.7 172.249 Z"/>
  <path id="path40" style="fill: rgb(242, 80, 78); fill-opacity: 1; fill-rule: nonzero; stroke: none; stroke-width: 2px; stroke-linejoin: round; stroke-linecap: round;" d="M 130.676 163.277 C 130.676 161.03 132.154 159.093 134.186 158.733 C 135.532 158.494 137.288 158.307 139.485 158.307 C 141.684 158.307 143.439 158.494 144.786 158.733 C 146.818 159.093 148.295 161.03 148.295 163.277 L 148.295 170.284 C 148.295 170.284 146.697 171.412 139.485 171.412 C 132.274 171.412 130.676 170.284 130.676 170.284 L 130.676 163.277"/>
  <path id="path42" style="fill: none; stroke: rgb(23, 40, 47); stroke-miterlimit: 10; stroke-dasharray: none; stroke-opacity: 1; stroke-width: 2px; stroke-linejoin: round; stroke-linecap: round;" d="M 130.676 163.277 C 130.676 161.03 132.154 159.093 134.186 158.733 C 135.532 158.494 137.288 158.307 139.485 158.307 C 141.684 158.307 143.439 158.494 144.786 158.733 C 146.818 159.093 148.295 161.03 148.295 163.277 L 148.295 170.284 C 148.295 170.284 146.697 171.412 139.485 171.412 C 132.274 171.412 130.676 170.284 130.676 170.284 L 130.676 163.277 Z"/>
  <path id="path44" style="fill: rgb(242, 80, 78); fill-opacity: 1; fill-rule: nonzero; stroke: none; stroke-width: 2px; stroke-linejoin: round; stroke-linecap: round;" d="M 133.522 158.263 C 133.522 156.519 134.684 155.012 136.266 154.768 C 137.122 154.636 138.19 154.541 139.485 154.541 C 140.781 154.541 141.849 154.636 142.706 154.768 C 144.287 155.012 145.448 156.519 145.448 158.263 L 145.448 160.427 C 145.448 160.427 144.366 161.191 139.485 161.191 C 134.606 161.191 133.522 160.427 133.522 160.427 L 133.522 158.263"/>
  <path id="path46" style="fill: none; stroke: rgb(23, 40, 47); stroke-miterlimit: 10; stroke-dasharray: none; stroke-opacity: 1; stroke-width: 2px; stroke-linejoin: round; stroke-linecap: round;" d="M 133.522 158.263 C 133.522 156.519 134.684 155.012 136.266 154.768 C 137.122 154.636 138.19 154.541 139.485 154.541 C 140.781 154.541 141.849 154.636 142.706 154.768 C 144.287 155.012 145.448 156.519 145.448 158.263 L 145.448 160.427 C 145.448 160.427 144.366 161.191 139.485 161.191 C 134.606 161.191 133.522 160.427 133.522 160.427 L 133.522 158.263 Z"/>
  <path id="path48" style="fill: none; stroke: rgb(23, 40, 47); stroke-miterlimit: 10; stroke-dasharray: none; stroke-opacity: 1; stroke-width: 2px; stroke-linejoin: round; stroke-linecap: round;" d="M 139.485 148.532 C 109.223 148.532 84.69 156.367 84.69 166.031"/>
  <path id="path50" style="fill: none; stroke: rgb(23, 40, 47); stroke-miterlimit: 10; stroke-dasharray: none; stroke-opacity: 1; stroke-width: 2px; stroke-linejoin: round; stroke-linecap: round;" d="M 139.485 183.53 C 169.748 183.53 194.281 175.696 194.281 166.031 C 194.281 159.862 184.284 154.438 169.18 151.321"/>
  <path id="path52" style="fill: none; stroke: rgb(23, 40, 47); stroke-miterlimit: 10; stroke-dasharray: none; stroke-opacity: 1; stroke-width: 2px; stroke-linejoin: round; stroke-linecap: round;" d="M 182.947 181.777 C 196.6 177.931 205.211 172.302 205.211 166.031 C 205.211 154.439 175.785 145.041 139.485 145.041 C 103.186 145.041 73.759 154.439 73.759 166.031 C 73.759 177.623 103.186 187.021 139.485 187.021"/>
  <path id="path54" style="fill: rgb(133, 184, 230); fill-opacity: 1; fill-rule: nonzero; stroke: none; stroke-width: 2px; stroke-linejoin: round; stroke-linecap: round;" d="M 130.676 163.277 C 130.676 163.277 133.346 167.773 143.546 169.33 L 134.248 177.796 C 132.664 179.237 130.794 180.256 128.785 180.767 L 85.689 191.74 C 82.089 192.657 78.301 191.885 75.245 189.612 L 70.089 185.777 L 130.676 163.277"/>
  <path id="path56" style="fill: none; stroke: rgb(23, 40, 47); stroke-miterlimit: 10; stroke-dasharray: none; stroke-opacity: 1; stroke-width: 2px; stroke-linejoin: round; stroke-linecap: round;" d="M 130.676 163.277 C 130.676 163.277 133.346 167.773 143.546 169.33 L 134.248 177.796 C 132.664 179.237 130.794 180.256 128.785 180.767 L 85.689 191.74 C 82.089 192.657 78.301 191.885 75.245 189.612 L 70.089 185.777 L 130.676 163.277 Z"/>
  <path id="path58" style="fill: rgb(133, 184, 230); fill-opacity: 1; fill-rule: nonzero; stroke: none; stroke-width: 2px; stroke-linejoin: round; stroke-linecap: round;" d="M 146.327 170.411 L 146.327 160.508 L 151.116 153.871 C 152.002 152.642 153.188 151.712 154.538 151.187 L 196.796 134.754 C 199.209 133.815 201.894 134.267 203.937 135.955 L 207.882 139.212 L 146.327 170.411"/>
  <path id="path60" style="fill: none; stroke: rgb(23, 40, 47); stroke-miterlimit: 10; stroke-dasharray: none; stroke-opacity: 1; stroke-width: 2px; stroke-linejoin: round; stroke-linecap: round;" d="M 146.327 170.411 L 146.327 160.508 L 151.116 153.871 C 152.002 152.642 153.188 151.712 154.538 151.187 L 196.796 134.754 C 199.209 133.815 201.894 134.267 203.937 135.955 L 207.882 139.212 L 146.327 170.411 Z"/>
  <path id="path96" style="fill: rgb(242, 80, 78); fill-opacity: 1; fill-rule: nonzero; stroke: none; stroke-width: 2px; stroke-linejoin: round; stroke-linecap: round;" d="M 333.667 213.731 C 333.667 216.353 335.392 218.612 337.763 219.034 C 339.334 219.313 341.382 219.532 343.947 219.532 C 346.512 219.532 348.56 219.313 350.131 219.034 C 352.502 218.612 354.227 216.353 354.227 213.731 L 354.227 205.556 L 333.667 205.556 L 333.667 213.731"/>
  <path id="path98" style="fill: none; stroke: rgb(23, 40, 47); stroke-miterlimit: 10; stroke-dasharray: none; stroke-opacity: 1; stroke-width: 2px; stroke-linejoin: round; stroke-linecap: round;" d="M 333.667 213.731 C 333.667 216.353 335.392 218.612 337.763 219.034 C 339.334 219.313 341.382 219.532 343.947 219.532 C 346.512 219.532 348.56 219.313 350.131 219.034 C 352.502 218.612 354.227 216.353 354.227 213.731 L 354.227 205.556 L 333.667 205.556 L 333.667 213.731 Z"/>
  <path id="path100" style="fill: rgb(242, 80, 78); fill-opacity: 1; fill-rule: nonzero; stroke: none; stroke-width: 2px; stroke-linejoin: round; stroke-linecap: round;" d="M 264.964 202.123 L 285.743 224.322 C 285.743 224.322 308.22 211.921 320.435 205.322 C 326.868 206.273 328.241 211.941 340.905 211.941 C 349.83 211.941 354.959 205.217 358.665 204.189 C 362.37 203.161 367.052 202.835 369.199 199.214 C 371.347 195.602 371.54 188.599 368.223 186.476 C 366.647 185.467 364.791 185.736 361.271 186.293 L 361.271 172.25 C 361.271 172.25 344.875 166.083 324.043 172.163 C 323.859 172.096 323.753 172.048 323.744 172.038 C 323.665 171.952 323.718 182.567 323.736 186.437 C 323.234 186.418 322.846 186.428 322.618 186.467 C 317.918 187.273 264.964 202.123 264.964 202.123"/>
  <path id="path102" style="fill: rgb(255, 255, 255); fill-opacity: 1; fill-rule: nonzero; stroke: none; stroke-width: 2px; stroke-linejoin: round; stroke-linecap: round;" d="M 361.274 172.248 L 361.274 176.253 C 354.48 174.996 343.198 174.102 330.225 177.896 C 330.04 177.829 329.926 177.771 329.917 177.762 C 329.838 177.675 329.89 188.462 329.909 192.4 C 329.398 192.382 329.011 192.391 328.774 192.43 C 324.267 193.208 276.056 206.695 270.663 208.202 L 264.968 202.122 C 264.968 202.122 317.921 187.272 322.621 186.464 C 322.85 186.426 323.237 186.417 323.739 186.436 C 323.722 182.564 323.669 171.951 323.748 172.037 C 323.757 172.047 323.862 172.094 324.047 172.162 C 344.878 166.081 361.274 172.248 361.274 172.248"/>
  <path id="path104" style="fill: none; stroke: rgb(23, 40, 47); stroke-miterlimit: 10; stroke-dasharray: none; stroke-opacity: 1; stroke-width: 2px; stroke-linejoin: round; stroke-linecap: round;" d="M 320.43 205.326 C 326.868 206.263 328.229 211.941 340.907 211.941 C 349.833 211.941 354.958 205.214 358.665 204.186 C 362.372 203.157 367.055 202.838 369.2 199.218 C 371.347 195.597 371.542 188.602 368.225 186.473 C 364.908 184.342 360.321 187.576 341.495 187.907 C 335.447 188.014 330.692 187.215 330.692 187.215"/>
  <path id="path106" style="fill: none; stroke: rgb(23, 40, 47); stroke-miterlimit: 10; stroke-dasharray: none; stroke-opacity: 1; stroke-width: 2px; stroke-linejoin: round; stroke-linecap: round;" d="M 331.107 204.678 C 331.107 201.643 330.082 200.525 328.034 201.323 C 325.984 202.122 285.744 224.322 285.744 224.322 L 264.965 202.122 C 264.965 202.122 319.04 186.577 323.74 185.777"/>
  <path id="path108" style="fill: none; stroke: rgb(23, 40, 47); stroke-miterlimit: 10; stroke-dasharray: none; stroke-opacity: 1; stroke-width: 2px; stroke-linejoin: round; stroke-linecap: round;" d="M 361.269 184.98 C 361.269 184.98 361.269 173.314 361.269 172.249 C 361.269 172.249 353.506 174.491 342.483 174.491 C 330.045 174.491 323.839 172.156 323.74 172.042 C 323.643 171.929 323.74 185.777 323.74 185.777"/>
  <path id="path110" style="fill: none; stroke: rgb(23, 40, 47); stroke-miterlimit: 10; stroke-dasharray: none; stroke-opacity: 1; stroke-width: 2px; stroke-linejoin: round; stroke-linecap: round;" d="M 361.269 172.249 C 361.269 172.249 344.715 165.82 323.74 172.042 C 323.74 172.042 330.789 174.491 342.483 174.491 C 354.178 174.491 361.269 172.249 361.269 172.249 Z"/>
  <path id="path112" style="fill: none; stroke: rgb(23, 40, 47); stroke-miterlimit: 10; stroke-dasharray: none; stroke-opacity: 1; stroke-width: 2px; stroke-linejoin: round; stroke-linecap: round;" d="M 342.483 148.532 C 372.746 148.532 397.279 156.367 397.279 166.031"/>
  <path id="path114" style="fill: none; stroke: rgb(23, 40, 47); stroke-miterlimit: 10; stroke-dasharray: none; stroke-opacity: 1; stroke-width: 2px; stroke-linejoin: round; stroke-linecap: round;" d="M 342.483 183.53 C 312.22 183.53 287.688 175.696 287.688 166.031 C 287.688 159.862 297.685 154.438 312.788 151.321"/>
  <path id="path116" style="fill: none; stroke: rgb(23, 40, 47); stroke-miterlimit: 10; stroke-dasharray: none; stroke-opacity: 1; stroke-width: 2px; stroke-linejoin: round; stroke-linecap: round;" d="M 299.022 181.777 C 285.368 177.931 276.757 172.302 276.757 166.031 C 276.757 154.439 306.184 145.041 342.483 145.041 C 378.783 145.041 408.209 154.439 408.209 166.031 C 408.209 177.623 378.783 187.021 342.483 187.021"/>
  <path id="path118" style="fill: rgb(242, 80, 78); fill-opacity: 1; fill-rule: nonzero; stroke: none; stroke-width: 2px; stroke-linejoin: round; stroke-linecap: round;" d="M 351.294 163.277 C 351.294 161.03 349.815 159.093 347.783 158.733 C 346.436 158.494 344.681 158.307 342.483 158.307 C 340.286 158.307 338.53 158.494 337.183 158.733 C 335.152 159.093 333.673 161.03 333.673 163.277 L 333.673 170.284 C 333.673 170.284 335.273 171.412 342.483 171.412 C 349.694 171.412 351.294 170.284 351.294 170.284 L 351.294 163.277"/>
  <path id="path120" style="fill: none; stroke: rgb(23, 40, 47); stroke-miterlimit: 10; stroke-dasharray: none; stroke-opacity: 1; stroke-width: 2px; stroke-linejoin: round; stroke-linecap: round;" d="M 351.294 163.277 C 351.294 161.03 349.815 159.093 347.783 158.733 C 346.436 158.494 344.681 158.307 342.483 158.307 C 340.286 158.307 338.53 158.494 337.183 158.733 C 335.152 159.093 333.673 161.03 333.673 163.277 L 333.673 170.284 C 333.673 170.284 335.273 171.412 342.483 171.412 C 349.694 171.412 351.294 170.284 351.294 170.284 L 351.294 163.277 Z"/>
  <path id="path122" style="fill: rgb(242, 80, 78); fill-opacity: 1; fill-rule: nonzero; stroke: none; stroke-width: 2px; stroke-linejoin: round; stroke-linecap: round;" d="M 348.446 158.263 C 348.446 156.519 347.285 155.012 345.704 154.768 C 344.847 154.636 343.779 154.541 342.483 154.541 C 341.188 154.541 340.12 154.636 339.263 154.768 C 337.681 155.012 336.52 156.519 336.52 158.263 L 336.52 160.427 C 336.52 160.427 337.603 161.191 342.483 161.191 C 347.364 161.191 348.446 160.427 348.446 160.427 L 348.446 158.263"/>
  <path id="path124" style="fill: none; stroke: rgb(23, 40, 47); stroke-miterlimit: 10; stroke-dasharray: none; stroke-opacity: 1; stroke-width: 2px; stroke-linejoin: round; stroke-linecap: round;" d="M 348.446 158.263 C 348.446 156.519 347.285 155.012 345.704 154.768 C 344.847 154.636 343.779 154.541 342.483 154.541 C 341.188 154.541 340.12 154.636 339.263 154.768 C 337.681 155.012 336.52 156.519 336.52 158.263 L 336.52 160.427 C 336.52 160.427 337.603 161.191 342.483 161.191 C 347.364 161.191 348.446 160.427 348.446 160.427 L 348.446 158.263 Z"/>
  <path id="path126" style="fill: rgb(133, 184, 230); fill-opacity: 1; fill-rule: nonzero; stroke: none; stroke-width: 2px; stroke-linejoin: round; stroke-linecap: round;" d="M 351.294 163.277 C 351.294 163.277 348.623 167.773 338.423 169.33 L 347.721 177.796 C 349.305 179.237 351.175 180.256 353.183 180.767 L 396.28 191.74 C 399.88 192.657 403.668 191.885 406.723 189.612 L 411.88 185.777 L 351.294 163.277"/>
  <path id="path128" style="fill: none; stroke: rgb(23, 40, 47); stroke-miterlimit: 10; stroke-dasharray: none; stroke-opacity: 1; stroke-width: 2px; stroke-linejoin: round; stroke-linecap: round;" d="M 351.294 163.277 C 351.294 163.277 348.623 167.773 338.423 169.33 L 347.721 177.796 C 349.305 179.237 351.175 180.256 353.183 180.767 L 396.28 191.74 C 399.88 192.657 403.668 191.885 406.723 189.612 L 411.88 185.777 L 351.294 163.277 Z"/>
  <path id="path130" style="fill: rgb(133, 184, 230); fill-opacity: 1; fill-rule: nonzero; stroke: none; stroke-width: 2px; stroke-linejoin: round; stroke-linecap: round;" d="M 335.643 170.411 L 335.643 160.508 L 330.854 153.871 C 329.966 152.642 328.78 151.712 327.431 151.187 L 285.173 134.754 C 282.759 133.815 280.074 134.267 278.031 135.955 L 274.087 139.212 L 335.643 170.411"/>
  <path id="path132" style="fill: none; stroke: rgb(23, 40, 47); stroke-miterlimit: 10; stroke-dasharray: none; stroke-opacity: 1; stroke-width: 2px; stroke-linejoin: round; stroke-linecap: round;" d="M 335.643 170.411 L 335.643 160.508 L 330.854 153.871 C 329.966 152.642 328.78 151.712 327.431 151.187 L 285.173 134.754 C 282.759 133.815 280.074 134.267 278.031 135.955 L 274.087 139.212 L 335.643 170.411 Z"/>
  <path id="path134" style="fill: rgb(242, 80, 78); fill-opacity: 1; fill-rule: nonzero; stroke: none; stroke-width: 2px; stroke-linejoin: round; stroke-linecap: round;" d="M 273.013 284.722 C 273.013 284.722 273.013 287.968 273.013 293.923 C 273.013 299.841 263.173 302.828 260.04 305.163 C 256.907 307.507 252.137 314.96 240.986 314.96 C 229.826 314.96 225.066 307.507 221.933 305.163 C 218.8 302.828 208.951 299.841 208.951 293.923 C 208.951 287.968 208.951 284.722 208.951 284.722 L 240.986 289.62 L 273.013 284.722"/>
  <path id="path136" style="fill: none; stroke: rgb(23, 40, 47); stroke-miterlimit: 10; stroke-dasharray: none; stroke-opacity: 1; stroke-width: 2px; stroke-linejoin: round; stroke-linecap: round;" d="M 273.013 284.722 C 273.013 284.722 273.013 287.968 273.013 293.923 C 273.013 299.841 263.173 302.828 260.04 305.163 C 256.907 307.507 252.137 314.96 240.986 314.96 C 229.826 314.96 225.066 307.507 221.933 305.163 C 218.8 302.828 208.951 299.841 208.951 293.923 C 208.951 287.968 208.951 284.722 208.951 284.722 L 240.986 289.62 L 273.013 284.722 Z"/>
  <path id="path142" style="fill: rgb(242, 80, 78); fill-opacity: 1; fill-rule: nonzero; stroke: none; stroke-width: 2px; stroke-linejoin: round; stroke-linecap: round;" d="M 361.274 250.947 L 361.274 268.834 C 361.274 268.834 291.01 243.033 287.498 242.716 C 283.978 242.389 281.241 246.645 272.431 249.401 C 256.458 254.396 240.986 252.859 240.986 252.859 C 240.986 252.859 225.515 254.396 209.542 249.401 C 200.732 246.645 197.994 242.389 194.474 242.716 C 190.963 243.033 120.699 268.834 120.699 268.834 L 120.699 250.947 C 120.699 250.947 188.218 222.121 189.388 221.161 C 190.559 220.199 190.048 218.509 191.218 215.627 C 192.39 212.755 211.979 196.003 240.986 195.36 C 269.994 196.003 289.574 212.755 290.746 215.627 C 291.916 218.509 291.414 220.199 292.585 221.161 C 293.755 222.121 361.274 250.947 361.274 250.947"/>
  <path id="path144" style="fill: rgb(242, 80, 78); fill-opacity: 1; fill-rule: nonzero; stroke: none; stroke-width: 2px; stroke-linejoin: round; stroke-linecap: round;" d="M 361.274 250.947 L 361.274 268.834 C 361.274 268.834 291.01 243.033 287.498 242.716 C 283.978 242.389 281.241 246.645 272.431 249.401 C 256.458 254.396 240.986 252.859 240.986 252.859 C 240.986 252.859 225.515 254.396 209.542 249.401 C 200.732 246.645 197.994 242.389 194.474 242.716 C 190.963 243.033 120.699 268.834 120.699 268.834 L 120.699 250.947 C 120.699 250.947 188.218 222.121 189.388 221.161 C 190.559 220.199 190.048 218.509 191.218 215.627 C 192.39 212.755 211.979 196.003 240.986 195.36 C 269.994 196.003 289.574 212.755 290.746 215.627 C 291.916 218.509 291.414 220.199 292.585 221.161 C 293.755 222.121 361.274 250.947 361.274 250.947"/>
  <path id="path146" style="fill: rgb(255, 255, 255); fill-opacity: 1; fill-rule: nonzero; stroke: none; stroke-width: 2px; stroke-linejoin: round; stroke-linecap: round;" d="M 290.707 215.543 C 282.326 209.719 267.351 202.356 248.316 201.934 C 219.311 202.584 199.718 219.332 198.555 222.203 C 197.381 225.084 197.892 226.777 196.719 227.737 C 195.707 228.563 137.081 253.324 120.696 260.243 L 120.696 250.95 C 120.696 250.95 188.215 222.12 189.388 221.16 C 190.56 220.199 190.05 218.506 191.223 215.625 C 192.387 212.755 211.979 196.006 240.984 195.355 C 269.735 195.996 289.222 212.455 290.707 215.543"/>
  <path id="path148" style="fill: none; stroke: rgb(23, 40, 47); stroke-miterlimit: 10; stroke-dasharray: none; stroke-opacity: 1; stroke-width: 2px; stroke-linejoin: round; stroke-linecap: round;" d="M 361.274 250.947 L 361.274 268.834 C 361.274 268.834 291.01 243.033 287.498 242.716 C 283.978 242.389 281.241 246.645 272.431 249.401 C 256.458 254.396 240.986 252.859 240.986 252.859 C 240.986 252.859 225.515 254.396 209.542 249.401 C 200.732 246.645 197.994 242.389 194.474 242.716 C 190.963 243.033 120.699 268.834 120.699 268.834 L 120.699 250.947 C 120.699 250.947 188.218 222.121 189.388 221.161 C 190.559 220.199 190.048 218.509 191.218 215.627 C 192.39 212.755 211.979 196.003 240.986 195.36 C 269.994 196.003 289.574 212.755 290.746 215.627 C 291.916 218.509 291.414 220.199 292.585 221.161 C 293.755 222.121 361.274 250.947 361.274 250.947 Z"/>
  <path id="path150" style="fill: rgb(255, 255, 255); fill-opacity: 1; fill-rule: nonzero; stroke: none; stroke-width: 2px; stroke-linejoin: round; stroke-linecap: round;" d="M 280.035 210.085 C 280.035 215.935 259.063 221.689 240.986 221.689 C 222.909 221.689 201.929 215.935 201.929 210.085 C 201.929 204.226 216.045 195.36 240.986 195.36 C 265.919 195.36 280.035 204.226 280.035 210.085"/>
  <path id="path152" style="fill: none; stroke: rgb(23, 40, 47); stroke-miterlimit: 10; stroke-dasharray: none; stroke-opacity: 1; stroke-width: 2px; stroke-linejoin: round; stroke-linecap: round;" d="M 280.035 210.085 C 280.035 215.935 259.063 221.689 240.986 221.689 C 222.909 221.689 201.929 215.935 201.929 210.085 C 201.929 204.226 216.045 195.36 240.986 195.36 C 265.919 195.36 280.035 204.226 280.035 210.085 Z"/>
  <path id="path154" style="fill: rgb(242, 80, 78); fill-opacity: 1; fill-rule: nonzero; stroke: none; stroke-width: 2px; stroke-linejoin: round; stroke-linecap: round;" d="M 361.265 268.834 L 361.265 285.125 C 361.265 285.125 293.693 264.069 291.643 264.069 C 289.601 264.069 284.497 275.067 280.791 281.129 C 277.861 285.922 267.036 292.791 240.986 292.791 C 214.936 292.791 204.112 285.922 201.181 281.129 C 197.476 275.067 192.371 264.069 190.321 264.069 C 188.27 264.069 120.699 285.125 120.699 285.125 L 120.699 268.834 C 120.699 268.834 190.963 243.033 194.474 242.716 C 197.986 242.398 202.791 246.27 212.886 249.353 C 224.027 252.753 240.986 252.859 240.986 252.859 C 240.986 252.859 257.945 252.753 269.078 249.353 C 279.172 246.27 283.978 242.398 287.498 242.716 C 291.01 243.033 361.265 268.834 361.265 268.834"/>
  <path id="path156" style="fill: none; stroke: rgb(23, 40, 47); stroke-miterlimit: 10; stroke-dasharray: none; stroke-opacity: 1; stroke-width: 2px; stroke-linejoin: round; stroke-linecap: round;" d="M 361.265 268.834 L 361.265 285.125 C 361.265 285.125 293.693 264.069 291.643 264.069 C 289.601 264.069 284.497 275.067 280.791 281.129 C 277.861 285.922 267.036 292.791 240.986 292.791 C 214.936 292.791 204.112 285.922 201.181 281.129 C 197.476 275.067 192.371 264.069 190.321 264.069 C 188.27 264.069 120.699 285.125 120.699 285.125 L 120.699 268.834 C 120.699 268.834 190.963 243.033 194.474 242.716 C 197.986 242.398 202.791 246.27 212.886 249.353 C 224.027 252.753 240.986 252.859 240.986 252.859 C 240.986 252.859 257.945 252.753 269.078 249.353 C 279.172 246.27 283.978 242.398 287.498 242.716 C 291.01 243.033 361.265 268.834 361.265 268.834 Z"/>
  <path id="path158" style="fill: rgb(242, 80, 78); fill-opacity: 1; fill-rule: nonzero; stroke: none; stroke-width: 2px; stroke-linejoin: round; stroke-linecap: round;" d="M 119.876 295.342 C 119.876 298.463 117.823 301.153 114.999 301.655 C 113.127 301.989 110.688 302.248 107.634 302.248 C 104.581 302.248 102.142 301.989 100.27 301.655 C 97.447 301.153 95.393 298.463 95.393 295.342 L 95.393 285.606 L 119.876 285.606 L 119.876 295.342"/>
  <path id="path160" style="fill: none; stroke: rgb(23, 40, 47); stroke-miterlimit: 10; stroke-dasharray: none; stroke-opacity: 1; stroke-width: 2px; stroke-linejoin: round; stroke-linecap: round;" d="M 119.876 295.342 C 119.876 298.463 117.823 301.153 114.999 301.655 C 113.127 301.989 110.688 302.248 107.634 302.248 C 104.581 302.248 102.142 301.989 100.27 301.655 C 97.447 301.153 95.393 298.463 95.393 295.342 L 95.393 285.606 L 119.876 285.606 L 119.876 295.342 Z"/>
  <path id="path162" style="fill: rgb(242, 80, 78); fill-opacity: 1; fill-rule: nonzero; stroke: none; stroke-width: 2px; stroke-linejoin: round; stroke-linecap: round;" d="M 136.787 280.171 C 128.092 282.87 123.673 293.213 108.58 293.213 C 97.949 293.213 92.739 285.202 88.321 283.972 C 83.903 282.752 80.119 282.368 77.558 278.055 C 75.005 273.743 74.776 265.414 78.72 262.878 C 80.594 261.677 82.812 261.908 87.01 262.532 L 87.01 261.101 C 87.01 261.101 87.01 247.211 87.01 245.944 C 87.01 245.944 106.723 238.287 131.699 245.694 C 131.814 245.558 131.699 262.052 131.699 262.052 L 136.787 280.171"/>
  <path id="path164" style="fill: rgb(255, 255, 255); fill-opacity: 1; fill-rule: nonzero; stroke: none; stroke-width: 2px; stroke-linejoin: round; stroke-linecap: round;" d="M 96.981 283.972 C 100.818 285.038 105.254 291.234 113.333 292.829 C 111.872 293.079 110.297 293.213 108.58 293.213 C 97.949 293.213 92.739 285.202 88.321 283.972 C 83.903 282.752 80.119 282.368 77.558 278.055 C 75.005 273.743 74.776 265.414 78.72 262.878 C 80.594 261.677 82.812 261.908 87.01 262.532 L 87.01 261.101 C 87.01 261.101 87.01 247.211 87.01 245.944 C 87.01 245.944 97.94 241.698 113.834 242.59 C 102.763 243.187 95.67 245.944 95.67 245.944 C 95.67 247.211 95.67 261.101 95.67 261.101 L 95.67 262.532 C 91.472 261.908 89.254 261.677 87.379 262.878 C 83.437 265.414 83.666 273.743 86.217 278.055 C 88.779 282.368 92.563 282.752 96.981 283.972"/>
  <path id="path166" style="fill: none; stroke: rgb(23, 40, 47); stroke-miterlimit: 10; stroke-dasharray: none; stroke-opacity: 1; stroke-width: 2px; stroke-linejoin: round; stroke-linecap: round;" d="M 137.732 279.841 C 129.032 282.539 123.677 293.21 108.578 293.21 C 97.949 293.21 92.736 285.198 88.322 283.973 C 83.907 282.749 80.117 282.368 77.562 278.058 C 75.006 273.747 74.774 265.417 78.724 262.881 C 82.673 260.345 88.137 264.196 110.553 264.59 C 117.756 264.717 123.419 263.766 123.419 263.766"/>
  <path id="path168" style="fill: none; stroke: rgb(23, 40, 47); stroke-miterlimit: 10; stroke-dasharray: none; stroke-opacity: 1; stroke-width: 2px; stroke-linejoin: round; stroke-linecap: round;" d="M 87.007 261.103 C 87.007 261.103 87.007 247.211 87.007 245.942 C 87.007 245.942 96.251 248.614 109.377 248.614 C 124.188 248.614 131.58 245.832 131.697 245.698 C 131.812 245.563 131.697 264.813 131.697 264.813"/>
  <path id="path170" style="fill: none; stroke: rgb(23, 40, 47); stroke-miterlimit: 10; stroke-dasharray: none; stroke-opacity: 1; stroke-width: 2px; stroke-linejoin: round; stroke-linecap: round;" d="M 87.007 245.942 C 87.007 245.942 106.72 238.288 131.697 245.698 C 131.697 245.698 123.303 248.614 109.377 248.614 C 95.452 248.614 87.007 245.942 87.007 245.942 Z"/>
  <path id="path172" style="fill: rgb(242, 80, 78); fill-opacity: 1; fill-rule: nonzero; stroke: none; stroke-width: 2px; stroke-linejoin: round; stroke-linecap: round;" d="M 98.886 235.26 C 98.886 232.584 100.646 230.279 103.066 229.849 C 104.67 229.564 106.76 229.341 109.377 229.341 C 111.995 229.341 114.085 229.564 115.689 229.849 C 118.108 230.279 119.869 232.584 119.869 235.26 L 119.869 243.603 C 119.869 243.603 117.964 244.948 109.377 244.948 C 100.79 244.948 98.886 243.603 98.886 243.603 L 98.886 235.26"/>
  <path id="path174" style="fill: none; stroke: rgb(23, 40, 47); stroke-miterlimit: 10; stroke-dasharray: none; stroke-opacity: 1; stroke-width: 2px; stroke-linejoin: round; stroke-linecap: round;" d="M 98.886 235.26 C 98.886 232.584 100.646 230.279 103.066 229.849 C 104.67 229.564 106.76 229.341 109.377 229.341 C 111.995 229.341 114.085 229.564 115.689 229.849 C 118.108 230.279 119.869 232.584 119.869 235.26 L 119.869 243.603 C 119.869 243.603 117.964 244.948 109.377 244.948 C 100.79 244.948 98.886 243.603 98.886 243.603 L 98.886 235.26 Z"/>
  <path id="path176" style="fill: rgb(242, 80, 78); fill-opacity: 1; fill-rule: nonzero; stroke: none; stroke-width: 2px; stroke-linejoin: round; stroke-linecap: round;" d="M 102.277 229.289 C 102.277 227.213 103.66 225.417 105.543 225.127 C 106.563 224.97 107.835 224.856 109.377 224.856 C 110.92 224.856 112.192 224.97 113.212 225.127 C 115.096 225.417 116.478 227.213 116.478 229.289 L 116.478 231.865 C 116.478 231.865 115.189 232.775 109.377 232.775 C 103.566 232.775 102.277 231.865 102.277 231.865 L 102.277 229.289"/>
  <path id="path178" style="fill: none; stroke: rgb(23, 40, 47); stroke-miterlimit: 10; stroke-dasharray: none; stroke-opacity: 1; stroke-width: 2px; stroke-linejoin: round; stroke-linecap: round;" d="M 102.277 229.289 C 102.277 227.213 103.66 225.417 105.543 225.127 C 106.563 224.97 107.835 224.856 109.377 224.856 C 110.92 224.856 112.192 224.97 113.212 225.127 C 115.096 225.417 116.478 227.213 116.478 229.289 L 116.478 231.865 C 116.478 231.865 115.189 232.775 109.377 232.775 C 103.566 232.775 102.277 231.865 102.277 231.865 L 102.277 229.289 Z"/>
  <path id="path180" style="fill: none; stroke: rgb(23, 40, 47); stroke-miterlimit: 10; stroke-dasharray: none; stroke-opacity: 1; stroke-width: 2px; stroke-linejoin: round; stroke-linecap: round;" d="M 75.698 251.848 C 49.005 247.807 30.54 239.113 30.54 229.04 C 30.54 215.113 65.837 203.823 109.377 203.823 C 152.918 203.823 188.215 215.113 188.215 229.04"/>
  <path id="path182" style="fill: none; stroke: rgb(23, 40, 47); stroke-miterlimit: 10; stroke-dasharray: none; stroke-opacity: 1; stroke-width: 2px; stroke-linejoin: round; stroke-linecap: round;" d="M 153.034 244.702 C 141.426 247.998 126.134 250 109.377 250 C 73.078 250 43.651 240.602 43.651 229.008"/>
  <path id="path184" style="fill: none; stroke: rgb(23, 40, 47); stroke-miterlimit: 10; stroke-dasharray: none; stroke-opacity: 1; stroke-width: 2px; stroke-linejoin: round; stroke-linecap: round;" d="M 80.017 210.222 C 88.854 208.81 98.825 208.016 109.377 208.016 C 134.998 208.016 157.195 212.698 168.037 219.529"/>
  <path id="path186" style="fill: rgb(133, 184, 230); fill-opacity: 1; fill-rule: nonzero; stroke: none; stroke-width: 2px; stroke-linejoin: round; stroke-linecap: round;" d="M 100.04 243.171 L 100.04 231.379 L 94.338 223.474 C 93.282 222.011 91.869 220.905 90.262 220.279 L 39.941 200.711 C 37.066 199.593 33.869 200.131 31.436 202.141 L 26.739 206.02 L 100.04 243.171"/>
  <path id="path188" style="fill: none; stroke: rgb(23, 40, 47); stroke-miterlimit: 10; stroke-dasharray: none; stroke-opacity: 1; stroke-width: 2px; stroke-linejoin: round; stroke-linecap: round;" d="M 100.04 243.171 L 100.04 231.379 L 94.338 223.474 C 93.282 222.011 91.869 220.905 90.262 220.279 L 39.941 200.711 C 37.066 199.593 33.869 200.131 31.436 202.141 L 26.739 206.02 L 100.04 243.171 Z"/>
  <path id="path190" style="fill: rgb(133, 184, 230); fill-opacity: 1; fill-rule: nonzero; stroke: none; stroke-width: 2px; stroke-linejoin: round; stroke-linecap: round;" d="M 118.678 234.676 C 118.678 234.676 115.498 240.031 103.351 241.883 L 114.423 251.966 C 116.309 253.683 118.537 254.894 120.929 255.503 L 172.249 268.57 C 176.537 269.662 181.046 268.743 184.685 266.037 L 190.826 261.47 L 118.678 234.676"/>
  <path id="path192" style="fill: none; stroke: rgb(23, 40, 47); stroke-miterlimit: 10; stroke-dasharray: none; stroke-opacity: 1; stroke-width: 2px; stroke-linejoin: round; stroke-linecap: round;" d="M 118.678 234.676 C 118.678 234.676 115.498 240.031 103.351 241.883 L 114.423 251.966 C 116.309 253.683 118.537 254.894 120.929 255.503 L 172.249 268.57 C 176.537 269.662 181.046 268.743 184.685 266.037 L 190.826 261.47 L 118.678 234.676 Z"/>
  <path id="path198" style="fill: rgb(242, 80, 78); fill-opacity: 1; fill-rule: nonzero; stroke: none; stroke-width: 2px; stroke-linejoin: round; stroke-linecap: round;" d="M 362.093 295.342 C 362.093 298.463 364.146 301.153 366.97 301.655 C 368.841 301.989 371.281 302.248 374.335 302.248 C 377.388 302.248 379.827 301.989 381.699 301.655 C 384.522 301.153 386.576 298.463 386.576 295.342 L 386.576 285.606 L 362.093 285.606 L 362.093 295.342"/>
  <path id="path200" style="fill: none; stroke: rgb(23, 40, 47); stroke-miterlimit: 10; stroke-dasharray: none; stroke-opacity: 1; stroke-width: 2px; stroke-linejoin: round; stroke-linecap: round;" d="M 362.093 295.342 C 362.093 298.463 364.146 301.153 366.97 301.655 C 368.841 301.989 371.281 302.248 374.335 302.248 C 377.388 302.248 379.827 301.989 381.699 301.655 C 384.522 301.153 386.576 298.463 386.576 295.342 L 386.576 285.606 L 362.093 285.606 L 362.093 295.342 Z"/>
  <path id="path202" style="fill: rgb(242, 80, 78); fill-opacity: 1; fill-rule: nonzero; stroke: none; stroke-width: 2px; stroke-linejoin: round; stroke-linecap: round;" d="M 345.181 280.171 C 353.877 282.87 358.296 293.213 373.388 293.213 C 384.02 293.213 389.23 285.202 393.648 283.972 C 398.065 282.752 401.85 282.368 404.411 278.055 C 406.963 273.743 407.192 265.414 403.249 262.878 C 401.375 261.677 399.157 261.908 394.959 262.532 L 394.959 261.101 C 394.959 261.101 394.959 247.211 394.959 245.944 C 394.959 245.944 375.246 238.287 350.269 245.694 C 350.155 245.558 350.269 262.052 350.269 262.052 L 345.181 280.171"/>
  <path id="path204" style="fill: none; stroke: rgb(23, 40, 47); stroke-miterlimit: 10; stroke-dasharray: none; stroke-opacity: 1; stroke-width: 2px; stroke-linejoin: round; stroke-linecap: round;" d="M 344.236 279.841 C 352.937 282.539 358.293 293.21 373.39 293.21 C 384.02 293.21 389.232 285.198 393.648 283.973 C 398.062 282.749 401.851 282.368 404.407 278.058 C 406.962 273.747 407.195 265.417 403.245 262.881 C 399.296 260.345 393.832 264.196 371.415 264.59 C 364.212 264.717 358.55 263.766 358.55 263.766"/>
  <path id="path206" style="fill: none; stroke: rgb(23, 40, 47); stroke-miterlimit: 10; stroke-dasharray: none; stroke-opacity: 1; stroke-width: 2px; stroke-linejoin: round; stroke-linecap: round;" d="M 394.962 261.103 C 394.962 261.103 394.962 247.211 394.962 245.942 C 394.962 245.942 385.718 248.614 372.591 248.614 C 357.78 248.614 350.389 245.832 350.273 245.698 C 350.157 245.563 350.273 264.813 350.273 264.813"/>
  <path id="path208" style="fill: none; stroke: rgb(23, 40, 47); stroke-miterlimit: 10; stroke-dasharray: none; stroke-opacity: 1; stroke-width: 2px; stroke-linejoin: round; stroke-linecap: round;" d="M 394.962 245.942 C 394.962 245.942 375.249 238.288 350.273 245.698 C 350.273 245.698 358.665 248.614 372.591 248.614 C 386.516 248.614 394.962 245.942 394.962 245.942 Z"/>
  <path id="path210" style="fill: rgb(242, 80, 78); fill-opacity: 1; fill-rule: nonzero; stroke: none; stroke-width: 2px; stroke-linejoin: round; stroke-linecap: round;" d="M 383.082 235.26 C 383.082 232.584 381.322 230.279 378.902 229.849 C 377.298 229.564 375.209 229.341 372.591 229.341 C 369.974 229.341 367.884 229.564 366.28 229.849 C 363.86 230.279 362.1 232.584 362.1 235.26 L 362.1 243.603 C 362.1 243.603 364.005 244.948 372.591 244.948 C 381.178 244.948 383.082 243.603 383.082 243.603 L 383.082 235.26"/>
  <path id="path212" style="fill: none; stroke: rgb(23, 40, 47); stroke-miterlimit: 10; stroke-dasharray: none; stroke-opacity: 1; stroke-width: 2px; stroke-linejoin: round; stroke-linecap: round;" d="M 383.082 235.26 C 383.082 232.584 381.322 230.279 378.902 229.849 C 377.298 229.564 375.209 229.341 372.591 229.341 C 369.974 229.341 367.884 229.564 366.28 229.849 C 363.86 230.279 362.1 232.584 362.1 235.26 L 362.1 243.603 C 362.1 243.603 364.005 244.948 372.591 244.948 C 381.178 244.948 383.082 243.603 383.082 243.603 L 383.082 235.26 Z"/>
  <path id="path214" style="fill: rgb(242, 80, 78); fill-opacity: 1; fill-rule: nonzero; stroke: none; stroke-width: 2px; stroke-linejoin: round; stroke-linecap: round;" d="M 379.691 229.289 C 379.691 227.213 378.309 225.417 376.426 225.127 C 375.406 224.97 374.134 224.856 372.591 224.856 C 371.049 224.856 369.777 224.97 368.756 225.127 C 366.873 225.417 365.491 227.213 365.491 229.289 L 365.491 231.865 C 365.491 231.865 366.779 232.775 372.591 232.775 C 378.403 232.775 379.691 231.865 379.691 231.865 L 379.691 229.289"/>
  <path id="path216" style="fill: none; stroke: rgb(23, 40, 47); stroke-miterlimit: 10; stroke-dasharray: none; stroke-opacity: 1; stroke-width: 2px; stroke-linejoin: round; stroke-linecap: round;" d="M 379.691 229.289 C 379.691 227.213 378.309 225.417 376.426 225.127 C 375.406 224.97 374.134 224.856 372.591 224.856 C 371.049 224.856 369.777 224.97 368.756 225.127 C 366.873 225.417 365.491 227.213 365.491 229.289 L 365.491 231.865 C 365.491 231.865 366.779 232.775 372.591 232.775 C 378.403 232.775 379.691 231.865 379.691 231.865 L 379.691 229.289 Z"/>
  <path id="path218" style="fill: none; stroke: rgb(23, 40, 47); stroke-miterlimit: 10; stroke-dasharray: none; stroke-opacity: 1; stroke-width: 2px; stroke-linejoin: round; stroke-linecap: round;" d="M 406.27 251.848 C 432.964 247.807 451.428 239.113 451.428 229.04 C 451.428 215.113 416.132 203.823 372.591 203.823 C 329.05 203.823 293.754 215.113 293.754 229.04"/>
  <path id="path220" style="fill: none; stroke: rgb(23, 40, 47); stroke-miterlimit: 10; stroke-dasharray: none; stroke-opacity: 1; stroke-width: 2px; stroke-linejoin: round; stroke-linecap: round;" d="M 328.935 244.702 C 340.544 247.998 355.836 250 372.591 250 C 408.891 250 438.318 240.602 438.318 229.008"/>
  <path id="path222" style="fill: none; stroke: rgb(23, 40, 47); stroke-miterlimit: 10; stroke-dasharray: none; stroke-opacity: 1; stroke-width: 2px; stroke-linejoin: round; stroke-linecap: round;" d="M 401.952 210.222 C 393.115 208.81 383.144 208.016 372.591 208.016 C 346.972 208.016 324.775 212.698 313.932 219.529"/>
  <path id="path224" style="fill: rgb(133, 184, 230); fill-opacity: 1; fill-rule: nonzero; stroke: none; stroke-width: 2px; stroke-linejoin: round; stroke-linecap: round;" d="M 381.928 243.171 L 381.928 231.379 L 387.631 223.474 C 388.687 222.011 390.1 220.905 391.707 220.279 L 442.028 200.711 C 444.902 199.593 448.099 200.131 450.533 202.141 L 455.23 206.02 L 381.928 243.171"/>
  <path id="path226" style="fill: none; stroke: rgb(23, 40, 47); stroke-miterlimit: 10; stroke-dasharray: none; stroke-opacity: 1; stroke-width: 2px; stroke-linejoin: round; stroke-linecap: round;" d="M 381.928 243.171 L 381.928 231.379 L 387.631 223.474 C 388.687 222.011 390.1 220.905 391.707 220.279 L 442.028 200.711 C 444.902 199.593 448.099 200.131 450.533 202.141 L 455.23 206.02 L 381.928 243.171 Z"/>
  <path id="path228" style="fill: rgb(133, 184, 230); fill-opacity: 1; fill-rule: nonzero; stroke: none; stroke-width: 2px; stroke-linejoin: round; stroke-linecap: round;" d="M 363.29 234.676 C 363.29 234.676 366.47 240.031 378.617 241.883 L 367.546 251.966 C 365.659 253.683 363.431 254.894 361.04 255.503 L 309.719 268.57 C 305.432 269.662 300.922 268.743 297.283 266.037 L 291.143 261.47 L 363.29 234.676"/>
  <path id="path230" style="fill: none; stroke: rgb(23, 40, 47); stroke-miterlimit: 10; stroke-dasharray: none; stroke-opacity: 1; stroke-width: 2px; stroke-linejoin: round; stroke-linecap: round;" d="M 363.29 234.676 C 363.29 234.676 366.47 240.031 378.617 241.883 L 367.546 251.966 C 365.659 253.683 363.431 254.894 361.04 255.503 L 309.719 268.57 C 305.432 269.662 300.922 268.743 297.283 266.037 L 291.143 261.47 L 363.29 234.676 Z"/>
</svg>